<svg width="400" height="400" viewBox="0 0 400 400" xmlns="http://www.w3.org/2000/svg">
  <rect width="400" height="400" fill="#1e293b" rx="20"/>
<defs>
  <linearGradient id="bgGrad" x1="0%" y1="0%" x2="100%" y2="100%">
    <stop offset="0%" style="stop-color:#1e293b"/>
    <stop offset="100%" style="stop-color:#475569"/>
  </linearGradient>
    </defs>
    <rect width="400" height="400" fill="url(#bgGrad)" rx="20"/>
  
  <g transform="translate(100,120) scale(2.5)">
    <path d="M8 10h28l4 24H12z" fill="none" stroke="white" stroke-width="3" stroke-linejoin="round"/>
    <path d="M4 14c0-2.2 1.8-4 4-4" fill="none" stroke="white" stroke-width="3" stroke-linecap="round"/>
    <circle cx="18" cy="42" r="4" fill="none" stroke="white" stroke-width="3"/>
    <circle cx="32" cy="42" r="4" fill="none" stroke="white" stroke-width="3"/>
    <line x1="16" y1="12" x2="16" y2="32" stroke="rgba(255,255,255,0.6)" stroke-width="2"/>
    <line x1="24" y1="12" x2="24" y2="32" stroke="rgba(255,255,255,0.6)" stroke-width="2"/>
    <line x1="12" y1="18" x2="36" y2="18" stroke="rgba(255,255,255,0.6)" stroke-width="2"/>
    <line x1="12" y1="26" x2="36" y2="26" stroke="rgba(255,255,255,0.6)" stroke-width="2"/>
    <circle cx="20" cy="22" r="3" fill="#ef4444"/>
    <circle cx="28" cy="24" r="2" fill="#f59e0b"/>
  </g>
  
  <text x="200" y="320" text-anchor="middle" font-family="Inter, sans-serif" font-size="24" font-weight="600" fill="white">Laravel</text>
  <text x="200" y="350" text-anchor="middle" font-family="Inter, sans-serif" font-size="18" font-weight="400" fill="rgba(255,255,255,0.8)">Shopping Cart</text>
</svg>